<mxfile host="65bd71144e">
    <diagram id="uI47wGhkAoDHP3XI-Pj6" name="Page-1">
        <mxGraphModel dx="1105" dy="607" grid="1" gridSize="10" guides="1" tooltips="1" connect="1" arrows="1" fold="1" page="1" pageScale="1" pageWidth="850" pageHeight="1100" math="0" shadow="0">
            <root>
                <mxCell id="0"/>
                <mxCell id="1" parent="0"/>
                <mxCell id="3" value="com.oozinoz.credit" style="shape=folder;fontStyle=1;tabWidth=110;tabHeight=30;tabPosition=left;html=1;boundedLbl=1;labelInHeader=1;container=1;collapsible=0;whiteSpace=wrap;" vertex="1" parent="1">
                    <mxGeometry x="80" y="60" width="460" height="430" as="geometry"/>
                </mxCell>
                <mxCell id="4" value="" style="html=1;strokeColor=none;resizeWidth=1;resizeHeight=1;fillColor=none;part=1;connectable=0;allowArrows=0;deletable=0;whiteSpace=wrap;" vertex="1" parent="3">
                    <mxGeometry width="460" height="26.32653061224491" relative="1" as="geometry">
                        <mxPoint y="30" as="offset"/>
                    </mxGeometry>
                </mxCell>
                <mxCell id="5" value="&lt;p style=&quot;margin:0px;margin-top:4px;text-align:center;&quot;&gt;&lt;i&gt;&amp;lt;&amp;lt;Interface&amp;gt;&amp;gt;&lt;/i&gt;&lt;br&gt;&lt;b&gt;CreditCheck&lt;/b&gt;&lt;/p&gt;&lt;hr size=&quot;1&quot; style=&quot;border-style:solid;&quot;&gt;&lt;p style=&quot;margin:0px;margin-left:4px;&quot;&gt;&lt;br&gt;&lt;/p&gt;&lt;hr size=&quot;1&quot; style=&quot;border-style:solid;&quot;&gt;&lt;p style=&quot;margin:0px;margin-left:4px;&quot;&gt;creditLimit(id:int)&lt;/p&gt;" style="verticalAlign=top;align=left;overflow=fill;html=1;whiteSpace=wrap;" vertex="1" parent="3">
                    <mxGeometry x="19.574468085106382" y="67.45166866746698" width="176.92382978723404" height="88.2904081632653" as="geometry"/>
                </mxCell>
                <mxCell id="6" value="&lt;p style=&quot;margin:0px;margin-top:4px;text-align:center;&quot;&gt;&lt;i&gt;&amp;lt;&amp;lt;Interface&amp;gt;&amp;gt;&lt;/i&gt;&lt;br&gt;&lt;span style=&quot;font-size: 12px;&quot;&gt;&lt;b&gt;BillingCheck&lt;/b&gt;&lt;/span&gt;&lt;/p&gt;&lt;hr size=&quot;1&quot; style=&quot;border-style:solid;&quot;&gt;&lt;p style=&quot;margin:0px;margin-left:4px;&quot;&gt;&lt;br&gt;&lt;/p&gt;&lt;hr size=&quot;1&quot; style=&quot;border-style:solid;&quot;&gt;&lt;p style=&quot;margin:0px;margin-left:4px;&quot;&gt;isResidential()&lt;/p&gt;" style="verticalAlign=top;align=left;overflow=fill;html=1;whiteSpace=wrap;" vertex="1" parent="3">
                    <mxGeometry x="19.574468085106382" y="170.85230092036812" width="176.92382978723404" height="88.2904081632653" as="geometry"/>
                </mxCell>
                <mxCell id="11" value="&lt;p style=&quot;margin:0px;margin-top:4px;text-align:center;&quot;&gt;&lt;i&gt;&amp;lt;&amp;lt;Interface&amp;gt;&amp;gt;&lt;/i&gt;&lt;br&gt;&lt;span style=&quot;font-size: 12px;&quot;&gt;&lt;b&gt;ShippingCheck&lt;/b&gt;&lt;/span&gt;&lt;/p&gt;&lt;hr size=&quot;1&quot; style=&quot;border-style:solid;&quot;&gt;&lt;p style=&quot;margin:0px;margin-left:4px;&quot;&gt;&lt;br&gt;&lt;/p&gt;&lt;hr size=&quot;1&quot; style=&quot;border-style:solid;&quot;&gt;&lt;p style=&quot;margin:0px;margin-left:4px;&quot;&gt;hasTariff()&lt;/p&gt;" style="verticalAlign=top;align=left;overflow=fill;html=1;whiteSpace=wrap;" vertex="1" parent="3">
                    <mxGeometry x="19.574468085106382" y="286.66391356542607" width="176.92382978723404" height="88.2904081632653" as="geometry"/>
                </mxCell>
                <mxCell id="12" value="&lt;p style=&quot;margin:0px;margin-top:4px;text-align:center;&quot;&gt;&lt;span style=&quot;font-size: 12px;&quot;&gt;&lt;b&gt;CreditCheckFactory&lt;/b&gt;&lt;/span&gt;&lt;/p&gt;&lt;hr size=&quot;1&quot; style=&quot;border-style:solid;&quot;&gt;&lt;p style=&quot;margin:0px;margin-left:4px;&quot;&gt;&lt;br&gt;&lt;/p&gt;&lt;hr size=&quot;1&quot; style=&quot;border-style:solid;&quot;&gt;&lt;p style=&quot;margin:0px;margin-left:4px;&quot;&gt;isAgencyUp():bool&lt;/p&gt;&lt;p style=&quot;margin:0px;margin-left:4px;&quot;&gt;&lt;span style=&quot;font-size: 12px;&quot;&gt;createCreditCheck()&lt;/span&gt;&lt;/p&gt;&lt;p style=&quot;margin:0px;margin-left:4px;&quot;&gt;&lt;span style=&quot;font-size: 12px;&quot;&gt;createBillingCheck()&lt;/span&gt;&lt;/p&gt;&lt;p style=&quot;margin:0px;margin-left:4px;&quot;&gt;&lt;span style=&quot;font-size: 12px;&quot;&gt;createShippingCheck()&lt;/span&gt;&lt;/p&gt;" style="verticalAlign=top;align=left;overflow=fill;html=1;whiteSpace=wrap;" vertex="1" parent="3">
                    <mxGeometry x="259.36" y="202.35" width="160.64" height="127.65" as="geometry"/>
                </mxCell>
                <mxCell id="13" value="CreditCheckOffline" style="html=1;whiteSpace=wrap;" vertex="1" parent="3">
                    <mxGeometry x="283.82978723404256" y="75.88235294117645" width="107.6595744680851" height="42.156862745098046" as="geometry"/>
                </mxCell>
                <mxCell id="14" value="" style="endArrow=block;dashed=1;endFill=0;endSize=12;html=1;entryX=0.991;entryY=0.322;entryDx=0;entryDy=0;entryPerimeter=0;exitX=0;exitY=0.5;exitDx=0;exitDy=0;" edge="1" parent="3" source="13" target="5">
                    <mxGeometry width="160" relative="1" as="geometry">
                        <mxPoint x="137.02127659574467" y="185.49019607843138" as="sourcePoint"/>
                        <mxPoint x="293.6170212765957" y="185.49019607843138" as="targetPoint"/>
                    </mxGeometry>
                </mxCell>
                <mxCell id="15" value="com.oozinoz.credit.ca" style="shape=folder;fontStyle=1;tabWidth=200;tabHeight=30;tabPosition=left;html=1;boundedLbl=1;labelInHeader=1;container=1;collapsible=0;whiteSpace=wrap;" vertex="1" parent="1">
                    <mxGeometry x="630" y="90" width="340" height="360" as="geometry"/>
                </mxCell>
                <mxCell id="16" value="" style="html=1;strokeColor=none;resizeWidth=1;resizeHeight=1;fillColor=none;part=1;connectable=0;allowArrows=0;deletable=0;whiteSpace=wrap;" vertex="1" parent="15">
                    <mxGeometry width="339.99999999999983" height="100" relative="1" as="geometry">
                        <mxPoint y="30" as="offset"/>
                    </mxGeometry>
                </mxCell>
                <mxCell id="21" value="CheckFactoryCanada" style="html=1;whiteSpace=wrap;" vertex="1" parent="15">
                    <mxGeometry x="95.9" y="70" width="134.1" height="35.29" as="geometry"/>
                </mxCell>
                <mxCell id="29" value="CreditCheckCanada" style="html=1;whiteSpace=wrap;" vertex="1" parent="15">
                    <mxGeometry x="95.9" y="150" width="134.1" height="35.29" as="geometry"/>
                </mxCell>
                <mxCell id="30" value="&lt;span style=&quot;color: rgb(0, 0, 0);&quot;&gt;BillingCheckCanada&lt;/span&gt;" style="html=1;whiteSpace=wrap;" vertex="1" parent="15">
                    <mxGeometry x="95.9" y="210" width="134.1" height="35.29" as="geometry"/>
                </mxCell>
                <mxCell id="31" value="&lt;span style=&quot;color: rgb(0, 0, 0);&quot;&gt;ShippingCheckCanada&lt;/span&gt;" style="html=1;whiteSpace=wrap;" vertex="1" parent="15">
                    <mxGeometry x="95.9" y="280" width="134.1" height="35.29" as="geometry"/>
                </mxCell>
                <mxCell id="33" value="&lt;div&gt;&lt;font color=&quot;#000000&quot;&gt;&lt;b&gt;public class&lt;/b&gt; CheckFactoryCanada &lt;b&gt;extends &lt;/b&gt;CreditCheckFactory {&lt;/font&gt;&lt;/div&gt;&lt;div&gt;&lt;p style=&quot;text-align: left; text-wrap-mode: wrap; margin: 0px 0px 0px 4px;&quot;&gt;&lt;br&gt;&lt;/p&gt;&lt;p style=&quot;text-align: left; text-wrap-mode: wrap; margin: 0px 0px 0px 4px;&quot;&gt;&lt;b&gt;public &lt;/b&gt;CreditCheck createCreditCheck(){&lt;/p&gt;&lt;p style=&quot;text-align: left; margin: 0px 0px 0px 4px;&quot;&gt;&lt;span style=&quot;white-space: pre;&quot;&gt;&#x9;&lt;/span&gt;&lt;span style=&quot;text-wrap-mode: wrap;&quot;&gt;&lt;span style=&quot;background-color: transparent;&quot;&gt;&lt;b&gt;if &lt;/b&gt;(isAgencyUp())&lt;/span&gt;&lt;br&gt;&lt;/span&gt;&lt;/p&gt;&lt;p style=&quot;text-align: left; margin: 0px 0px 0px 4px;&quot;&gt;&lt;span style=&quot;text-wrap-mode: wrap;&quot;&gt;&lt;span style=&quot;white-space: pre;&quot;&gt;&#x9;&lt;/span&gt;&lt;span style=&quot;white-space: pre;&quot;&gt;&#x9;&lt;/span&gt;&lt;b&gt;return new&lt;/b&gt; CreditCheckCanadaOnline();&lt;/span&gt;&lt;/p&gt;&lt;p style=&quot;text-align: left; margin: 0px 0px 0px 4px;&quot;&gt;&lt;span style=&quot;text-wrap-mode: wrap;&quot;&gt;&lt;span style=&quot;white-space: pre;&quot;&gt;&#x9;&lt;/span&gt;&lt;b&gt;return new&lt;/b&gt; CreditCheckOffline();&lt;/span&gt;&lt;/p&gt;&lt;p style=&quot;text-align: left; text-wrap-mode: wrap; margin: 0px 0px 0px 4px;&quot;&gt;}&lt;/p&gt;&lt;p style=&quot;text-align: left; text-wrap-mode: wrap; margin: 0px 0px 0px 4px;&quot;&gt;&lt;b&gt;public &lt;/b&gt;BillingCeck createBillingCheck(){&lt;/p&gt;&lt;p style=&quot;text-align: left; text-wrap-mode: wrap; margin: 0px 0px 0px 4px;&quot;&gt;&lt;span style=&quot;white-space: pre;&quot;&gt;&#x9;&lt;/span&gt;&lt;b&gt;return new &lt;/b&gt;BillingCheckCanada();&lt;br&gt;&lt;/p&gt;&lt;p style=&quot;text-align: left; text-wrap-mode: wrap; margin: 0px 0px 0px 4px;&quot;&gt;}&lt;/p&gt;&lt;p style=&quot;text-align: left; text-wrap-mode: wrap; margin: 0px 0px 0px 4px;&quot;&gt;&lt;b&gt;public &lt;/b&gt;ShippingCheck createShippingCheck(){&lt;/p&gt;&lt;p style=&quot;text-align: left; text-wrap-mode: wrap; margin: 0px 0px 0px 4px;&quot;&gt;&lt;span style=&quot;white-space: pre;&quot;&gt;&#x9;&lt;/span&gt;&lt;b&gt;return new &lt;/b&gt;ShippingCheckCanada();&lt;br&gt;&lt;/p&gt;&lt;p style=&quot;text-align: left; text-wrap-mode: wrap; margin: 0px 0px 0px 4px;&quot;&gt;}&lt;/p&gt;&lt;p style=&quot;text-align: left; text-wrap-mode: wrap; margin: 0px 0px 0px 4px;&quot;&gt;&lt;span style=&quot;background-color: transparent; text-align: center; text-wrap-mode: nowrap;&quot;&gt;}&lt;/span&gt;&lt;/p&gt;&lt;/div&gt;" style="text;html=1;align=center;verticalAlign=middle;resizable=0;points=[];autosize=1;strokeColor=none;fillColor=none;" vertex="1" parent="1">
                    <mxGeometry x="245" y="600" width="380" height="220" as="geometry"/>
                </mxCell>
                <mxCell id="34" value="com.oozinoz.credit" style="shape=folder;fontStyle=1;tabWidth=200;tabHeight=30;tabPosition=left;html=1;boundedLbl=1;labelInHeader=1;container=1;collapsible=0;whiteSpace=wrap;" vertex="1" parent="1">
                    <mxGeometry x="990" y="90" width="340" height="360" as="geometry"/>
                </mxCell>
                <mxCell id="35" value="" style="html=1;strokeColor=none;resizeWidth=1;resizeHeight=1;fillColor=none;part=1;connectable=0;allowArrows=0;deletable=0;whiteSpace=wrap;" vertex="1" parent="34">
                    <mxGeometry width="339.99999999999983" height="100" relative="1" as="geometry">
                        <mxPoint y="30" as="offset"/>
                    </mxGeometry>
                </mxCell>
                <mxCell id="36" value="&lt;div&gt;&lt;span style=&quot;background-color: transparent;&quot;&gt;CreditCheckFactory&lt;/span&gt;&lt;/div&gt;" style="html=1;whiteSpace=wrap;" vertex="1" parent="34">
                    <mxGeometry x="95.9" y="70" width="134.1" height="35.29" as="geometry"/>
                </mxCell>
                <mxCell id="37" value="&lt;div&gt;&amp;lt;&amp;lt;Interface&amp;gt;&amp;gt;&lt;/div&gt;CreditCheckCanada" style="html=1;whiteSpace=wrap;" vertex="1" parent="34">
                    <mxGeometry x="95.9" y="150" width="134.1" height="35.29" as="geometry"/>
                </mxCell>
                <mxCell id="38" value="&lt;div&gt;&lt;span style=&quot;color: rgb(0, 0, 0);&quot;&gt;&lt;span style=&quot;color: rgb(63, 63, 63);&quot;&gt;&amp;lt;&amp;lt;Interface&amp;gt;&amp;gt;&lt;/span&gt;&lt;/span&gt;&lt;/div&gt;&lt;span style=&quot;color: rgb(0, 0, 0);&quot;&gt;BillingCheckCanada&lt;/span&gt;" style="html=1;whiteSpace=wrap;" vertex="1" parent="34">
                    <mxGeometry x="95.9" y="210" width="134.1" height="35.29" as="geometry"/>
                </mxCell>
                <mxCell id="39" value="&lt;div&gt;&lt;span style=&quot;color: rgb(0, 0, 0);&quot;&gt;&lt;span style=&quot;color: rgb(63, 63, 63);&quot;&gt;&amp;lt;&amp;lt;Interface&amp;gt;&amp;gt;&lt;/span&gt;&lt;/span&gt;&lt;/div&gt;&lt;span style=&quot;color: rgb(0, 0, 0);&quot;&gt;ShippingCheckCanada&lt;/span&gt;" style="html=1;whiteSpace=wrap;" vertex="1" parent="34">
                    <mxGeometry x="95.9" y="280" width="134.1" height="35.29" as="geometry"/>
                </mxCell>
                <mxCell id="40" value="" style="endArrow=block;dashed=1;endFill=0;endSize=12;html=1;entryX=0;entryY=0.5;entryDx=0;entryDy=0;exitX=1;exitY=0.5;exitDx=0;exitDy=0;" edge="1" parent="1" source="29" target="37">
                    <mxGeometry width="160" relative="1" as="geometry">
                        <mxPoint x="790" y="240" as="sourcePoint"/>
                        <mxPoint x="950" y="240" as="targetPoint"/>
                    </mxGeometry>
                </mxCell>
                <mxCell id="41" value="" style="endArrow=block;dashed=1;endFill=0;endSize=12;html=1;entryX=0;entryY=0.5;entryDx=0;entryDy=0;exitX=1;exitY=0.5;exitDx=0;exitDy=0;" edge="1" parent="1" source="30" target="38">
                    <mxGeometry width="160" relative="1" as="geometry">
                        <mxPoint x="870" y="317.5" as="sourcePoint"/>
                        <mxPoint x="1096" y="317.5" as="targetPoint"/>
                    </mxGeometry>
                </mxCell>
                <mxCell id="42" value="" style="endArrow=block;dashed=1;endFill=0;endSize=12;html=1;entryX=0;entryY=0.5;entryDx=0;entryDy=0;exitX=1;exitY=0.5;exitDx=0;exitDy=0;" edge="1" parent="1" source="31" target="39">
                    <mxGeometry width="160" relative="1" as="geometry">
                        <mxPoint x="870" y="387.14" as="sourcePoint"/>
                        <mxPoint x="1096" y="387.14" as="targetPoint"/>
                    </mxGeometry>
                </mxCell>
                <mxCell id="43" value="" style="endArrow=block;endSize=16;endFill=0;html=1;entryX=0;entryY=0.5;entryDx=0;entryDy=0;exitX=1;exitY=0.5;exitDx=0;exitDy=0;" edge="1" parent="1" source="21" target="36">
                    <mxGeometry width="160" relative="1" as="geometry">
                        <mxPoint x="790" y="240" as="sourcePoint"/>
                        <mxPoint x="950" y="240" as="targetPoint"/>
                    </mxGeometry>
                </mxCell>
            </root>
        </mxGraphModel>
    </diagram>
</mxfile>